Coordinates
version=1
nRows=22
nColumns=24
inDegrees=yes

Units are S.I. units (second, meters, Newtons, ...)
Angles are in degrees.

endheader
time	pelvis_tilt	pelvis_list	pelvis_rotation	pelvis_tx	pelvis_ty	pelvis_tz	hip_flexion_r	hip_adduction_r	hip_rotation_r	knee_angle_r	ankle_angle_r	subtalar_angle_r	mtp_angle_r	hip_flexion_l	hip_adduction_l	hip_rotation_l	knee_angle_l	ankle_angle_l	subtalar_angle_l	mtp_angle_l	lumbar_extension	lumbar_bending	lumbar_rotation
      4.38500000	    -11.45164515	      0.98372327	     -4.00419721	     -1.71834400	     -0.02669720	     -0.29427340	     -2.41699561	      2.27614341	     10.63308890	    -17.32780535	      7.28484803	      5.50141905	     21.13068571	     34.15159900	     -0.85809779	      0.95229849	     -8.86688635	     -1.51351152	     -0.71856176	      7.69954682	      8.49996461	     -1.16974642	     13.27289388
      4.39000000	    -11.51937849	      1.14900161	     -4.01962867	     -1.71188499	     -0.02737975	     -0.29509191	     -2.51108217	      1.97685298	     10.37546455	    -17.75240928	      7.10355016	      6.13018798	     21.32899855	     34.16083332	     -0.61166442	      0.98443942	     -9.41513440	     -1.84288658	     -0.96124590	      7.78400621	      8.73591849	     -1.33173759	     13.34276250
      4.39500000	    -11.61199123	      1.30207692	     -3.99063005	     -1.70546991	     -0.02805029	     -0.29600160	     -2.55594347	      1.68147277	     10.00666143	    -18.19947517	      6.87740533	      6.84064929	     21.62709963	     34.22231161	     -0.34941753	      1.08996249	     -9.99551769	     -2.26715438	     -1.28413769	      7.94489953	      8.98665362	     -1.48330707	     13.34057101
      4.40000000	    -11.71547562	      1.49676409	     -3.92079027	     -1.69905169	     -0.02866799	     -0.29699779	     -2.57121549	      1.34065608	      9.64957750	    -18.67511158	      6.58836483	      7.51888974	     21.97281539	     34.30239682	     -0.02212968	      1.20959504	    -10.57253622	     -2.74992552	     -1.62186319	      8.14043274	      9.24975753	     -1.67980721	     13.32799066
      4.40500000	    -11.81210825	      1.68920641	     -3.84441732	     -1.69274704	     -0.02917955	     -0.29802179	     -2.55561087	      0.99301323	      9.22993759	    -19.18530412	      6.21404193	      8.26093432	     22.42714032	     34.39546192	      0.31030746	      1.37891981	    -11.17085703	     -3.29417369	     -2.00756971	      8.38560774	      9.48077159	     -1.87879314	     13.26875573
      4.41000000	    -11.92147745	      1.95155234	     -3.72457948	     -1.68640793	     -0.02962431	     -0.29904577	     -2.51749173	      0.57559928	      8.80697966	    -19.70619489	      5.79123201	      8.94871945	     22.87629686	     34.52015733	      0.72934215	      1.54763241	    -11.80447277	     -3.80564823	     -2.30259546	      8.58163419	      9.73422858	     -2.17382308	     13.20332615
      4.41500000	    -12.03079386	      2.24360045	     -3.56799700	     -1.68009639	     -0.02998124	     -0.30011187	     -2.45668965	      0.12221889	      8.34282084	    -20.25622832	      5.31494123	      9.66387300	     23.34317990	     34.66704650	      1.20224463	      1.75432052	    -12.48321441	     -4.27914827	     -2.55178235	      8.71344642	      9.98075370	     -2.51088087	     13.10971904
      4.42000000	    -12.13524881	      2.55007523	     -3.38606309	     -1.67382789	     -0.03024103	     -0.30121750	     -2.36975676	     -0.35650996	      7.80087669	    -20.84167076	      4.75911009	     10.42655121	     23.87779570	     34.82793593	      1.71232693	      2.01558349	    -13.20785413	     -4.72316884	     -2.78890695	      8.77124449	     10.20986163	     -2.86976316	     13.00886383
      4.42500000	    -12.23218932	      2.87444007	     -3.16505869	     -1.66756511	     -0.03041961	     -0.30235590	     -2.27516648	     -0.86119221	      7.20693612	    -21.44408188	      4.12356882	     11.20774757	     24.48933333	     34.99900976	      2.26957004	      2.33265290	    -13.98467022	     -5.11872869	     -2.98280827	      8.72542713	     10.42541385	     -3.25876984	     12.91627358
      4.43000000	    -12.32056860	      3.21936647	     -2.92164231	     -1.66129693	     -0.03051499	     -0.30347627	     -2.16322711	     -1.39181939	      6.58134132	    -22.08558604	      3.39933901	     12.00842064	     25.16819021	     35.16002949	      2.86246038	      2.69273798	    -14.78221485	     -5.45154869	     -3.10505334	      8.54704996	     10.62618564	     -3.68508145	     12.79134414
      4.43500000	    -12.39314576	      3.56565916	     -2.66416782	     -1.65499113	     -0.03053460	     -0.30457410	     -2.04554858	     -1.93145922	      5.92340796	    -22.76927170	      2.61252302	     12.87658093	     25.77460177	     35.30002479	      3.46469482	      3.05183237	    -15.59439680	     -5.70015885	     -3.11696984	      8.31187110	     10.81198503	     -4.12429340	     12.63015027
      4.44000000	    -12.44804656	      3.90315331	     -2.38996400	     -1.64868255	     -0.03049499	     -0.30568032	     -1.91838988	     -2.47475135	      5.19814979	    -23.49237480	      1.72682004	     13.77864676	     26.45317612	     35.41289908	      4.07639882	      3.46257256	    -16.41018493	     -5.91157892	     -3.12484578	      7.95581035	     10.97088114	     -4.56268715	     12.48017884
      4.44500000	    -12.48152863	      4.27077950	     -2.12046991	     -1.64226110	     -0.03036067	     -0.30677245	     -1.80818858	     -3.05743132	      4.49447549	    -24.18483518	      0.51769992	     14.51783487	     27.68617625	     35.45385467	      4.73427928	      3.95241118	    -17.18174757	     -6.02909397	     -3.23645844	      7.08257589	     11.11925064	     -5.03662382	     12.30193738
      4.45000000	    -12.48160733	      4.57010849	     -1.85693968	     -1.63589748	     -0.03023070	     -0.30764825	     -1.67383683	     -3.55767999	      3.73530348	    -25.03904629	     -0.46770914	     15.40879967	     27.88440232	     35.48699737	      5.26330556	      4.15861383	    -17.96710719	     -6.10381225	     -2.87879725	      7.05908984	     11.21224292	     -5.46698439	     12.14928389
      4.45500000	    -12.48467305	      4.86424120	     -1.57254316	     -1.62936549	     -0.03003557	     -0.30881801	     -1.54678791	     -4.11089589	      2.88348030	    -25.81137604	     -1.84600512	     16.38132945	     29.04598045	     35.43180788	      5.87549305	      4.72536424	    -18.65039915	     -6.19243995	     -3.07074683	      6.26175762	     11.33671659	     -5.85581129	     11.99868067
      4.46000000	    -12.46260646	      5.09369296	     -1.33071317	     -1.62287465	     -0.02984942	     -0.30970993	     -1.38821453	     -4.57529145	      2.08990692	    -26.72516923	     -3.06865052	     17.38685622	     29.24000514	     35.36924990	      6.33104165	      4.94301089	    -19.33556065	     -6.19298083	     -2.76775250	      6.25465460	     11.42487857	     -6.19415707	     11.87089881
      4.46500000	    -12.44981493	      5.31582387	     -1.07987782	     -1.61634859	     -0.02966854	     -0.31072756	     -1.18675271	     -5.06522085	      1.23068473	    -27.67542859	     -4.45086422	     18.38880667	     29.60450764	     35.25606150	      6.81591503	      5.31643568	    -19.92385267	     -6.26788826	     -2.78381202	      6.11471031	     11.52675619	     -6.50838974	     11.72787138
      4.47000000	    -12.39588782	      5.47349520	     -0.87126422	     -1.60993292	     -0.02943623	     -0.31175392	     -0.97958759	     -5.49813970	      0.42570382	    -28.64377860	     -6.11922966	     19.23901618	     30.39067097	     35.04965751	      7.24074638	      5.79878652	    -20.42955080	     -6.32583211	     -3.03494466	      5.81901319	     11.56012656	     -6.73822650	     11.66087672
      4.47500000	    -12.37586467	      5.65445688	     -0.68507447	     -1.60333987	     -0.02923902	     -0.31260397	     -0.71304687	     -5.94603905	     -0.32266469	    -29.68389605	     -7.74337584	     19.98893768	     30.49846499	     34.85261958	      7.62072474	      5.97328404	    -20.88108059	     -6.26600525	     -2.98381788	      5.87422567	     11.67676226	     -7.00681569	     11.56307417
      4.48000000	    -12.35929828	      5.76423871	     -0.51165842	     -1.59686979	     -0.02907286	     -0.31359622	     -0.38841494	     -6.34494449	     -1.06607797	    -30.77952926	     -9.48282197	     20.68947393	     30.69288907	     34.61326374	      7.96266786	      6.32541063	    -21.24898607	     -6.24121644	     -3.25970166	      5.93470231	     11.77623935	     -7.17147224	     11.47622476
      4.48500000	    -12.31836396	      5.86544154	     -0.43500750	     -1.59055711	     -0.02887416	     -0.31439058	     -0.00090289	     -6.72274457	     -1.68047887	    -31.98248163	    -11.22894316	     21.15970737	     30.54196067	     34.33860758	      8.21717312	      6.48727803	    -21.57465239	     -6.13329616	     -3.41174381	      6.06096582	     11.83112952	     -7.31660313	     11.52168159
      4.49000000	    -12.34053321	      5.94512134	     -0.26511296	     -1.58418786	     -0.02872099	     -0.31542176	      0.44055109	     -7.08903479	     -2.29174559	    -33.16893685	    -13.07571016	     21.56146931	     30.45183598	     34.08017866	      8.52657498	      6.81821311	    -21.81684584	     -6.12040152	     -3.77692184	      6.23249597	     11.96561210	     -7.43753185	     11.41937803
